<svg xmlns="http://www.w3.org/2000/svg" width="27" height="29" fill="none" viewBox="0 0 27 29"><path fill="#129FC6" d="M19.5432 28.1687L9.40927 28.1142C8.49983 27.9943 7.64757 27.6048 6.96314 26.9961C6.45367 26.53 6.05459 25.9568 5.79482 25.318C5.63889 24.8873 5.52813 24.4416 5.46431 23.9881C5.3338 23.2959 5.27486 22.761 5.22433 22.2387C5.17381 21.7164 5.15276 21.3577 5.11066 20.6067C5.11066 20.5186 5.07066 19.8914 5.04961 19.3607C4.98435 17.7246 5.0033 15.9143 5.01382 15.3752C5.02017 15.3656 5.0272 15.3565 5.03487 15.3479C8.45987 18.4524 11.1081 20.8102 11.5502 21.0556L11.6175 21.1185L11.6533 21.1479C11.7754 21.2528 14.2173 23.426 19.5432 28.1687Z"/><path fill="#2DBFC5" d="M23.5976 0.412551V0.934863V8.57447C23.5593 9.5448 23.4239 10.5089 23.1934 11.4524C22.9829 12.3397 22.7977 13.1306 22.3283 13.9696C21.7108 15.0476 20.8173 15.943 19.739 16.5644L16.2593 18.2908L13.1395 19.8388C13.0995 19.8619 13.0574 19.8808 13.0174 19.9017L12.0575 20.3779C11.9695 20.4226 11.8863 20.476 11.8091 20.5373C11.7383 20.5847 11.6781 20.6461 11.6323 20.7177C11.5417 20.8813 11.6323 21.0533 11.6133 21.0743C11.5944 21.0953 11.5838 21.0743 11.5502 21.0554C11.1081 20.81 8.45987 18.4523 5.03488 15.3478L5.01382 15.3289C5.05593 13.8354 5.09873 12.3418 5.14224 10.8483C5.23285 10.1551 5.46972 9.48886 5.83726 8.89341C6.2048 8.29795 6.69469 7.78678 7.2747 7.3935C8.46829 6.55445 9.46611 6.13492 10.8828 5.50563L11.7144 5.13854C12.4259 4.8197 13.2469 4.44212 14.2278 3.95337L20.1474 1.31454C21.6525 0.643291 22.623 0.202786 22.8377 0.112588C22.9114 0.0706466 22.9933 0.0446723 23.0778 0.0363592C23.1623 0.0280461 23.2476 0.037581 23.3282 0.064342C23.3963 0.0986639 23.4559 0.147752 23.5025 0.208006C23.5491 0.26826 23.5816 0.33815 23.5976 0.412551Z"/><path fill="#08A3C7" d="M26.867 0.412695C26.6312 3.12285 26.3947 5.8316 26.1575 8.53896C26.0352 9.502 25.8173 10.4506 25.5071 11.3708C25.2145 12.2371 24.9682 13.0006 24.4293 13.7998C23.7194 14.8237 22.7496 15.6416 21.6189 16.1702L16.2594 18.2909L19.7391 16.5645C20.8159 15.9405 21.7072 15.0429 22.3221 13.9635C22.7915 13.1244 22.9683 12.3399 23.1872 11.4463C23.4173 10.5048 23.5527 9.54284 23.5914 8.57462V0.935008C25.0166 0.44416 25.926 0.127416 26.1365 0.051901C26.2141 0.0176788 26.298 0 26.3828 0C26.4676 0 26.5515 0.0176788 26.6291 0.051901C26.6929 0.0909232 26.7473 0.143485 26.7884 0.205846C26.8295 0.268207 26.8564 0.338832 26.867 0.412695Z" opacity=".2"/></svg>