<svg width="255" height="135" viewBox="0 0 255 135" fill="none" xmlns="http://www.w3.org/2000/svg">
<path d="M69.0718 134.287L20.9318 134.027C16.6116 133.456 12.563 131.599 9.31175 128.697C6.89154 126.475 4.99579 123.743 3.76175 120.697C3.02104 118.644 2.4949 116.519 2.19175 114.357C1.57175 111.057 1.29175 108.507 1.05175 106.017C0.811751 103.527 0.711751 101.817 0.511751 98.2375C0.511751 97.8175 0.321751 94.8275 0.221751 92.2975C-0.088249 84.4975 0.00175104 75.8675 0.051751 73.2975C0.0818914 73.2518 0.115313 73.2083 0.151751 73.1675C16.4218 87.9675 29.0018 99.2075 31.1018 100.377L31.4218 100.677L31.5918 100.817C32.1718 101.317 43.7718 111.677 69.0718 134.287Z" fill="#129FC6"/>
<path d="M88.3318 1.96744V4.45744V40.8774C88.1497 45.5032 87.5065 50.0994 86.4118 54.5974C85.4118 58.8274 84.5318 62.5974 82.3018 66.5974C79.3684 71.7364 75.124 76.005 70.0018 78.9674L53.4718 87.1974L38.6518 94.5774C38.4618 94.6874 38.2618 94.7774 38.0718 94.8774L33.5118 97.1474C33.094 97.3606 32.6986 97.6152 32.3318 97.9074C31.9955 98.1332 31.7095 98.426 31.4918 98.7674C31.0618 99.5474 31.4918 100.367 31.4018 100.467C31.3118 100.567 31.2618 100.467 31.1018 100.377C29.0018 99.2074 16.4218 87.9674 0.151758 73.1674L0.0517578 73.0774C0.251758 65.9574 0.455091 58.8374 0.661758 51.7174C1.09222 48.4127 2.21743 45.2366 3.96339 42.3979C5.70935 39.5592 8.03649 37.1223 10.7918 35.2474C16.4618 31.2474 21.2018 29.2474 27.9318 26.2474L31.8818 24.4974C35.2618 22.9774 39.1618 21.1774 43.8218 18.8474L71.9418 6.26744C79.0918 3.06744 83.7018 0.96744 84.7218 0.53744C85.0721 0.337495 85.4608 0.213669 85.8622 0.174038C86.2637 0.134407 86.669 0.179863 87.0518 0.30744C87.3755 0.471061 87.6585 0.705078 87.88 0.992323C88.1014 1.27957 88.2558 1.61275 88.3318 1.96744Z" fill="#2DBFC5"/>
<path opacity="0.2" d="M103.862 1.96743C102.742 14.8874 101.618 27.8008 100.492 40.7074C99.9105 45.2985 98.8754 49.8206 97.4017 54.2074C96.0117 58.3374 94.8417 61.9774 92.2817 65.7874C88.9094 70.6685 84.3028 74.5678 78.9317 77.0874L53.4717 87.1974L70.0017 78.9674C75.1167 75.9925 79.3508 71.7136 82.2717 66.5674C84.5017 62.5674 85.3417 58.8274 86.3817 54.5674C87.4745 50.0791 88.1176 45.4932 88.3017 40.8774V4.45743C95.0717 2.11743 99.3917 0.607426 100.392 0.247425C100.76 0.0842793 101.159 0 101.562 0C101.965 0 102.363 0.0842793 102.732 0.247425C103.035 0.433454 103.293 0.684032 103.489 0.981322C103.684 1.27861 103.811 1.6153 103.862 1.96743Z" fill="#08A3C7"/>
<path d="M69.0718 134.287L20.9318 134.027C16.6116 133.456 12.563 131.599 9.31175 128.697C6.89154 126.475 4.99579 123.743 3.76175 120.697C3.02104 118.644 2.4949 116.519 2.19175 114.357C1.57175 111.057 1.29175 108.507 1.05175 106.017C0.811751 103.527 0.711751 101.817 0.511751 98.2375C0.511751 97.8175 0.321751 94.8275 0.221751 92.2975C-0.088249 84.4975 0.00175104 75.8675 0.051751 73.2975C0.0818914 73.2518 0.115313 73.2083 0.151751 73.1675C16.4218 87.9675 29.0018 99.2075 31.1018 100.377L31.4218 100.677L31.5918 100.817C32.1718 101.317 43.7718 111.677 69.0718 134.287Z" fill="#129FC6"/>
<path d="M88.3318 1.96744V4.45744V40.8774C88.1497 45.5032 87.5065 50.0994 86.4118 54.5974C85.4118 58.8274 84.5318 62.5974 82.3018 66.5974C79.3684 71.7364 75.124 76.005 70.0018 78.9674L53.4718 87.1974L38.6518 94.5774C38.4618 94.6874 38.2618 94.7774 38.0718 94.8774L33.5118 97.1474C33.094 97.3606 32.6986 97.6152 32.3318 97.9074C31.9955 98.1332 31.7095 98.426 31.4918 98.7674C31.0618 99.5474 31.4918 100.367 31.4018 100.467C31.3118 100.567 31.2618 100.467 31.1018 100.377C29.0018 99.2074 16.4218 87.9674 0.151758 73.1674L0.0517578 73.0774C0.251758 65.9574 0.455091 58.8374 0.661758 51.7174C1.09222 48.4127 2.21743 45.2366 3.96339 42.3979C5.70935 39.5592 8.03649 37.1223 10.7918 35.2474C16.4618 31.2474 21.2018 29.2474 27.9318 26.2474L31.8818 24.4974C35.2618 22.9774 39.1618 21.1774 43.8218 18.8474L71.9418 6.26744C79.0918 3.06744 83.7018 0.96744 84.7218 0.53744C85.0721 0.337495 85.4608 0.213669 85.8622 0.174038C86.2637 0.134407 86.669 0.179863 87.0518 0.30744C87.3755 0.471061 87.6585 0.705078 87.88 0.992323C88.1014 1.27957 88.2558 1.61275 88.3318 1.96744Z" fill="#2DBFC5"/>
<path opacity="0.2" d="M103.862 1.96743C102.742 14.8874 101.618 27.8008 100.492 40.7074C99.9105 45.2985 98.8754 49.8206 97.4017 54.2074C96.0117 58.3374 94.8417 61.9774 92.2817 65.7874C88.9094 70.6685 84.3028 74.5678 78.9317 77.0874L53.4717 87.1974L70.0017 78.9674C75.1167 75.9925 79.3508 71.7136 82.2717 66.5674C84.5017 62.5674 85.3417 58.8274 86.3817 54.5674C87.4745 50.0791 88.1176 45.4932 88.3017 40.8774V4.45743C95.0717 2.11743 99.3917 0.607426 100.392 0.247425C100.76 0.0842793 101.159 0 101.562 0C101.965 0 102.363 0.0842793 102.732 0.247425C103.035 0.433454 103.293 0.684032 103.489 0.981322C103.684 1.27861 103.811 1.6153 103.862 1.96743Z" fill="#08A3C7"/>
<path d="M76.344 101.224C78.248 101.736 79.672 102.416 80.616 103.264C81.56 104.096 82.032 105.184 82.032 106.528C82.032 107.6 81.696 108.56 81.024 109.408C80.352 110.256 79.36 110.92 78.048 111.4C76.752 111.88 75.176 112.12 73.32 112.12C71.128 112.12 69.192 111.84 67.512 111.28C65.848 110.704 64.544 110.008 63.6 109.192L64.392 108.112C65.224 108.768 66.272 109.328 67.536 109.792C68.8 110.256 70.16 110.488 71.616 110.488C72.56 110.488 73.272 110.352 73.752 110.08C74.248 109.808 74.496 109.424 74.496 108.928C74.496 108.064 73.64 107.392 71.928 106.912L68.808 106C67.112 105.488 65.8 104.776 64.872 103.864C63.96 102.952 63.504 101.872 63.504 100.624C63.504 99.584 63.832 98.64 64.488 97.792C65.144 96.944 66.096 96.28 67.344 95.8C68.608 95.304 70.12 95.056 71.88 95.056C73.56 95.056 75.104 95.248 76.512 95.632C77.936 96.016 79.096 96.48 79.992 97.024L79.2 98.128C78.448 97.696 77.544 97.328 76.488 97.024C75.448 96.72 74.352 96.568 73.2 96.568C72.192 96.568 71.416 96.728 70.872 97.048C70.344 97.352 70.08 97.776 70.08 98.32C70.08 98.736 70.28 99.104 70.68 99.424C71.08 99.728 71.84 100.032 72.96 100.336L76.344 101.224ZM95.3987 101.224C97.3027 101.736 98.7267 102.416 99.6707 103.264C100.615 104.096 101.087 105.184 101.087 106.528C101.087 107.6 100.751 108.56 100.079 109.408C99.4067 110.256 98.4147 110.92 97.1027 111.4C95.8067 111.88 94.2307 112.12 92.3747 112.12C90.1827 112.12 88.2467 111.84 86.5667 111.28C84.9027 110.704 83.5987 110.008 82.6547 109.192L83.4467 108.112C84.2787 108.768 85.3267 109.328 86.5907 109.792C87.8547 110.256 89.2147 110.488 90.6707 110.488C91.6147 110.488 92.3267 110.352 92.8067 110.08C93.3027 109.808 93.5507 109.424 93.5507 108.928C93.5507 108.064 92.6947 107.392 90.9827 106.912L87.8627 106C86.1667 105.488 84.8547 104.776 83.9267 103.864C83.0147 102.952 82.5587 101.872 82.5587 100.624C82.5587 99.584 82.8867 98.64 83.5427 97.792C84.1987 96.944 85.1507 96.28 86.3987 95.8C87.6627 95.304 89.1747 95.056 90.9347 95.056C92.6147 95.056 94.1587 95.248 95.5667 95.632C96.9907 96.016 98.1507 96.48 99.0467 97.024L98.2547 98.128C97.5027 97.696 96.5987 97.328 95.5427 97.024C94.5027 96.72 93.4067 96.568 92.2547 96.568C91.2467 96.568 90.4707 96.728 89.9267 97.048C89.3987 97.352 89.1347 97.776 89.1347 98.32C89.1347 98.736 89.3347 99.104 89.7347 99.424C90.1347 99.728 90.8947 100.032 92.0147 100.336L95.3987 101.224ZM102.297 95.2H119.745V96.616H110.745V102.832H115.161V104.272H110.745V110.56H119.745V112H102.297V95.2ZM121.117 95.2H128.941V112H121.117V95.2ZM130.305 95.2H137.361L144.369 103.6V95.2H145.809V112H140.169L131.769 100.816V112H130.305V95.2ZM170.071 101.224C171.975 101.736 173.399 102.416 174.343 103.264C175.287 104.096 175.759 105.184 175.759 106.528C175.759 107.6 175.423 108.56 174.751 109.408C174.079 110.256 173.087 110.92 171.775 111.4C170.479 111.88 168.903 112.12 167.047 112.12C164.855 112.12 162.919 111.84 161.239 111.28C159.575 110.704 158.271 110.008 157.327 109.192L158.119 108.112C158.951 108.768 159.999 109.328 161.263 109.792C162.527 110.256 163.887 110.488 165.343 110.488C166.287 110.488 166.999 110.352 167.479 110.08C167.975 109.808 168.223 109.424 168.223 108.928C168.223 108.064 167.367 107.392 165.655 106.912L162.535 106C160.839 105.488 159.527 104.776 158.599 103.864C157.687 102.952 157.231 101.872 157.231 100.624C157.231 99.584 157.559 98.64 158.215 97.792C158.871 96.944 159.823 96.28 161.071 95.8C162.335 95.304 163.847 95.056 165.607 95.056C167.287 95.056 168.831 95.248 170.239 95.632C171.663 96.016 172.823 96.48 173.719 97.024L172.927 98.128C172.175 97.696 171.271 97.328 170.215 97.024C169.175 96.72 168.079 96.568 166.927 96.568C165.919 96.568 165.143 96.728 164.599 97.048C164.071 97.352 163.807 97.776 163.807 98.32C163.807 98.736 164.007 99.104 164.407 99.424C164.807 99.728 165.567 100.032 166.687 100.336L170.071 101.224ZM181.87 95.2H188.878L196.318 112H187.246L184.726 106.432H179.446L177.286 112H175.534L181.87 95.2ZM184.054 104.968L181.87 100.096L179.974 104.968H184.054ZM197.266 95.2H204.322L211.33 103.6V95.2H212.77V112H207.13L198.73 100.816V112H197.266V95.2ZM220.261 96.616H213.949V95.2H234.997V96.616H228.661V112H220.261V96.616ZM236.172 95.2H253.62V96.616H244.62V102.832H249.036V104.272H244.62V110.56H253.62V112H236.172V95.2ZM245.244 90.832H252.06L248.316 94.096H241.476L245.244 90.832Z" fill="#106293"/>
</svg>
