<svg xmlns="http://www.w3.org/2000/svg" width="60" height="29" fill="none" viewBox="0 0 60 29"><path fill="#129FC6" d="M19.5432 28.1687L9.40927 28.1142C8.49983 27.9943 7.64757 27.6048 6.96314 26.9961C6.45367 26.53 6.05459 25.9568 5.79482 25.318C5.63889 24.8873 5.52813 24.4416 5.46431 23.9881C5.3338 23.2959 5.27486 22.761 5.22433 22.2387C5.17381 21.7164 5.15276 21.3577 5.11066 20.6067C5.11066 20.5186 5.07066 19.8914 5.04961 19.3607C4.98435 17.7246 5.0033 15.9143 5.01382 15.3752C5.02017 15.3656 5.0272 15.3565 5.03487 15.3479C8.45987 18.4524 11.1081 20.8102 11.5502 21.0556L11.6175 21.1185L11.6533 21.1479C11.7754 21.2528 14.2173 23.426 19.5432 28.1687Z"/><path fill="#2DBFC5" d="M23.5976 0.412551V0.934863V8.57447C23.5593 9.5448 23.4239 10.5089 23.1934 11.4524C22.9829 12.3397 22.7977 13.1306 22.3283 13.9696C21.7108 15.0476 20.8173 15.943 19.739 16.5644L16.2593 18.2908L13.1395 19.8388C13.0995 19.8619 13.0574 19.8808 13.0174 19.9017L12.0575 20.3779C11.9695 20.4226 11.8863 20.476 11.8091 20.5373C11.7383 20.5847 11.6781 20.6461 11.6323 20.7177C11.5417 20.8813 11.6323 21.0533 11.6133 21.0743C11.5944 21.0953 11.5838 21.0743 11.5502 21.0554C11.1081 20.81 8.45987 18.4523 5.03488 15.3478L5.01382 15.3289C5.05593 13.8354 5.09873 12.3418 5.14224 10.8483C5.23285 10.1551 5.46972 9.48886 5.83726 8.89341C6.2048 8.29795 6.69469 7.78678 7.2747 7.3935C8.46829 6.55445 9.46611 6.13492 10.8828 5.50563L11.7144 5.13854C12.4259 4.8197 13.2469 4.44212 14.2278 3.95337L20.1474 1.31454C21.6525 0.643291 22.623 0.202786 22.8377 0.112588C22.9114 0.0706466 22.9933 0.0446723 23.0778 0.0363592C23.1623 0.0280461 23.2476 0.037581 23.3282 0.064342C23.3963 0.0986639 23.4559 0.147752 23.5025 0.208006C23.5491 0.26826 23.5816 0.33815 23.5976 0.412551Z"/><path fill="#08A3C7" d="M26.867 0.412695C26.6312 3.12285 26.3947 5.8316 26.1575 8.53896C26.0352 9.502 25.8173 10.4506 25.5071 11.3708C25.2145 12.2371 24.9682 13.0006 24.4293 13.7998C23.7194 14.8237 22.7496 15.6416 21.6189 16.1702L16.2594 18.2909L19.7391 16.5645C20.8159 15.9405 21.7072 15.0429 22.3221 13.9635C22.7915 13.1244 22.9683 12.3399 23.1872 11.4463C23.4173 10.5048 23.5527 9.54284 23.5914 8.57462V0.935008C25.0166 0.44416 25.926 0.127416 26.1365 0.051901C26.2141 0.0176788 26.298 0 26.3828 0C26.4676 0 26.5515 0.0176788 26.6291 0.051901C26.6929 0.0909232 26.7473 0.143485 26.7884 0.205846C26.8295 0.268207 26.8564 0.338832 26.867 0.412695Z" opacity=".2"/><path fill="#106293" d="M22.36 18.124C23.008 18.124 23.556 18.184 24.004 18.304C24.452 18.424 24.808 18.656 25.072 19C25.344 19.336 25.48 19.82 25.48 20.452C25.48 20.732 25.436 21.02 25.348 21.316C25.268 21.604 25.164 21.856 25.036 22.072C24.916 22.288 24.808 22.428 24.712 22.492C24.6 22.572 24.352 22.636 23.968 22.684C23.584 22.724 23.132 22.744 22.612 22.744C22.428 22.744 22.144 22.736 21.76 22.72V25H19.6V18.16C20.44 18.136 21.36 18.124 22.36 18.124ZM23.26 21.208C23.34 21.104 23.38 20.896 23.38 20.584C23.38 20.176 23.292 19.888 23.116 19.72C22.948 19.552 22.652 19.468 22.228 19.468C22.084 19.468 21.928 19.48 21.76 19.504V21.328C21.84 21.336 21.996 21.34 22.228 21.34C22.844 21.34 23.188 21.296 23.26 21.208ZM31.4765 19.828C31.5485 19.916 31.6005 20.136 31.6325 20.488C31.6725 20.84 31.6925 21.376 31.6925 22.096V25H29.6405V22.12C29.6405 22.088 29.6405 21.932 29.6405 21.652C29.6405 21.364 29.6205 21.188 29.5805 21.124C29.5565 21.092 29.4965 21.068 29.4005 21.052C29.3125 21.036 29.2085 21.028 29.0885 21.028L28.8845 21.04C28.6605 21.048 28.4285 21.1 28.1885 21.196V25H26.1365V17.8L28.1885 17.716V19.12C28.1885 19.696 28.1685 20.08 28.1285 20.272L28.1405 20.284C28.6845 19.668 29.3365 19.36 30.0965 19.36C30.3845 19.36 30.6525 19.4 30.9005 19.48C31.1565 19.56 31.3485 19.676 31.4765 19.828ZM33.7084 18.796C33.4364 18.796 33.2004 18.704 33.0004 18.52C32.8084 18.336 32.7124 18.116 32.7124 17.86C32.7124 17.604 32.8084 17.384 33.0004 17.2C33.2004 17.016 33.4364 16.924 33.7084 16.924C33.9804 16.924 34.2124 17.016 34.4044 17.2C34.5964 17.384 34.6924 17.604 34.6924 17.86C34.6924 18.116 34.5964 18.336 34.4044 18.52C34.2124 18.704 33.9804 18.796 33.7084 18.796ZM32.6764 19.48H34.7284V25H32.6764V19.48ZM35.7819 17.8L37.8339 17.716V25H35.7819V17.8ZM43.3154 23.128C43.3154 23.84 43.0874 24.352 42.6314 24.664C42.1834 24.976 41.5434 25.132 40.7114 25.132C40.1274 25.132 39.4554 25.048 38.6954 24.88C38.7114 24.72 38.7474 24.492 38.8034 24.196C38.8674 23.892 38.9194 23.66 38.9594 23.5C39.2474 23.548 39.5674 23.588 39.9194 23.62C40.2714 23.644 40.5714 23.656 40.8194 23.656C41.0354 23.656 41.1674 23.644 41.2154 23.62C41.2234 23.612 41.2314 23.592 41.2394 23.56C41.2554 23.52 41.2634 23.48 41.2634 23.44C41.2634 23.28 41.1634 23.172 40.9634 23.116C40.8994 23.1 40.6554 23.032 40.2314 22.912C39.8074 22.792 39.4594 22.576 39.1874 22.264C38.9234 21.944 38.7914 21.548 38.7914 21.076C38.7914 20.828 38.8474 20.552 38.9594 20.248C39.0714 19.944 39.1914 19.752 39.3194 19.672C39.4154 19.608 39.6474 19.544 40.0154 19.48C40.3834 19.408 40.7234 19.372 41.0354 19.372C41.6994 19.372 42.3674 19.42 43.0394 19.516C43.0394 19.66 43.0194 19.904 42.9794 20.248C42.9394 20.584 42.9034 20.796 42.8714 20.884C42.1914 20.796 41.6434 20.752 41.2274 20.752C41.0114 20.752 40.8714 20.764 40.8074 20.788C40.7914 20.796 40.7754 20.82 40.7594 20.86C40.7434 20.892 40.7354 20.936 40.7354 20.992C40.7354 21.104 40.7714 21.184 40.8434 21.232C40.9154 21.288 41.1034 21.356 41.4074 21.436C41.7674 21.54 42.0754 21.648 42.3314 21.76C42.5954 21.872 42.8234 22.04 43.0154 22.264C43.2154 22.488 43.3154 22.776 43.3154 23.128ZM47.3439 23.56C47.5439 23.56 47.9159 23.54 48.4599 23.5C48.5319 23.5 48.6639 23.492 48.8559 23.476L49.0359 24.712C48.4199 25 47.6199 25.144 46.6359 25.144C45.7159 25.144 45.0079 24.912 44.5119 24.448C44.0239 23.984 43.7799 23.284 43.7799 22.348C43.7799 21.868 43.8399 21.404 43.9599 20.956C44.0879 20.508 44.2319 20.196 44.3919 20.02C44.5599 19.844 44.8719 19.692 45.3279 19.564C45.7839 19.436 46.2359 19.372 46.6839 19.372C47.4039 19.372 47.9439 19.5 48.3039 19.756C48.6639 20.012 48.8999 20.368 49.0119 20.824C49.1239 21.272 49.1799 21.876 49.1799 22.636C48.6359 22.668 48.1039 22.684 47.5839 22.684H45.8799C45.8799 22.94 45.9319 23.132 46.0359 23.26C46.1479 23.388 46.3039 23.472 46.5039 23.512C46.7039 23.544 46.9839 23.56 47.3439 23.56ZM45.9999 20.8C45.9519 20.824 45.9159 20.928 45.8919 21.112C45.8679 21.296 45.8519 21.504 45.8439 21.736H46.4679C46.8439 21.736 47.1159 21.732 47.2839 21.724C47.2839 21.34 47.2279 21.068 47.1159 20.908C47.0119 20.748 46.8279 20.668 46.5639 20.668C46.3479 20.668 46.1599 20.712 45.9999 20.8ZM50.9702 18.796C50.6982 18.796 50.4622 18.704 50.2622 18.52C50.0702 18.336 49.9742 18.116 49.9742 17.86C49.9742 17.604 50.0702 17.384 50.2622 17.2C50.4622 17.016 50.6982 16.924 50.9702 16.924C51.2422 16.924 51.4742 17.016 51.6662 17.2C51.8582 17.384 51.9542 17.604 51.9542 17.86C51.9542 18.116 51.8582 18.336 51.6662 18.52C51.4742 18.704 51.2422 18.796 50.9702 18.796ZM49.9382 19.48H51.9902V25H49.9382V19.48ZM58.3476 19.828C58.4196 19.916 58.4716 20.136 58.5036 20.488C58.5436 20.84 58.5636 21.376 58.5636 22.096V25H56.5116V22.12V21.628C56.5116 21.372 56.4916 21.212 56.4516 21.148C56.3876 21.068 56.2396 21.028 56.0076 21.028C55.8956 21.028 55.8116 21.032 55.7556 21.04C55.5316 21.048 55.2996 21.1 55.0596 21.196V25H53.0076V19.48H54.6756L54.9036 20.404C55.4796 19.708 56.1676 19.36 56.9676 19.36C57.2556 19.36 57.5236 19.4 57.7716 19.48C58.0276 19.56 58.2196 19.676 58.3476 19.828Z"/></svg>